# MagicaVoxel @ Ephtracy

# group
g sand-water

# material
mtllib sand-water.mtl
usemtl palette

# normals
vn -1 0 0
vn 1 0 0
vn 0 0 1
vn 0 0 -1
vn 0 -1 0
vn 0 1 0

# texcoords
vt 0.947266 0.5
vt 0.951172 0.5

# verts
v -16 0 16
v -16 0 -16
v -16 2 16
v -16 2 -16
v -15 1 16
v -15 1 15
v -15 2 16
v -15 2 15
v -14 1 15
v -14 1 14
v -14 2 15
v -14 2 14
v -13 1 14
v -13 1 13
v -13 2 14
v -13 2 13
v -12 1 13
v -12 1 12
v -12 2 13
v -12 2 12
v -11 1 12
v -11 1 11
v -11 2 12
v -11 2 11
v -10 1 11
v -10 1 10
v -10 2 11
v -10 2 10
v -9 1 10
v -9 1 9
v -9 2 10
v -9 2 9
v -8 1 9
v -8 1 8
v -8 2 9
v -8 2 8
v -7 1 8
v -7 1 7
v -7 2 8
v -7 2 7
v -6 1 7
v -6 1 6
v -6 2 7
v -6 2 6
v -5 1 6
v -5 1 5
v -5 2 6
v -5 2 5
v -4 1 5
v -4 1 4
v -4 2 5
v -4 2 4
v -3 1 4
v -3 1 3
v -3 2 4
v -3 2 3
v -2 1 3
v -2 1 2
v -2 2 3
v -2 2 2
v -1 1 2
v -1 1 1
v -1 2 2
v -1 2 1
v 0 1 1
v 0 1 -0
v 0 2 1
v 0 2 -0
v 1 1 -0
v 1 1 -1
v 1 2 -0
v 1 2 -1
v 2 1 -1
v 2 1 -2
v 2 2 -1
v 2 2 -2
v 3 1 -2
v 3 1 -3
v 3 2 -2
v 3 2 -3
v 4 1 -3
v 4 1 -4
v 4 2 -3
v 4 2 -4
v 5 1 -4
v 5 1 -5
v 5 2 -4
v 5 2 -5
v 6 1 -5
v 6 1 -6
v 6 2 -5
v 6 2 -6
v 7 1 -6
v 7 1 -7
v 7 2 -6
v 7 2 -7
v 8 1 -7
v 8 1 -8
v 8 2 -7
v 8 2 -8
v 9 1 -8
v 9 1 -9
v 9 2 -8
v 9 2 -9
v 10 1 -9
v 10 1 -10
v 10 2 -9
v 10 2 -10
v 11 1 -10
v 11 1 -11
v 11 2 -10
v 11 2 -11
v 12 1 -11
v 12 1 -12
v 12 2 -11
v 12 2 -12
v 13 1 -12
v 13 1 -13
v 13 2 -12
v 13 2 -13
v 14 1 -13
v 14 1 -14
v 14 2 -13
v 14 2 -14
v 15 1 -14
v 15 1 -15
v 15 2 -14
v 15 2 -15
v 16 0 16
v 16 0 -15
v 16 0 -16
v 16 1 16
v 16 1 -15
v 16 2 -15
v 16 2 -16
v -16 0 16
v -16 2 16
v -15 0 16
v -15 1 16
v -15 2 16
v 16 0 16
v 16 1 16
v -15 1 15
v -15 2 15
v -14 1 15
v -14 2 15
v -14 1 14
v -14 2 14
v -13 1 14
v -13 2 14
v -13 1 13
v -13 2 13
v -12 1 13
v -12 2 13
v -12 1 12
v -12 2 12
v -11 1 12
v -11 2 12
v -11 1 11
v -11 2 11
v -10 1 11
v -10 2 11
v -10 1 10
v -10 2 10
v -9 1 10
v -9 2 10
v -9 1 9
v -9 2 9
v -8 1 9
v -8 2 9
v -8 1 8
v -8 2 8
v -7 1 8
v -7 2 8
v -7 1 7
v -7 2 7
v -6 1 7
v -6 2 7
v -6 1 6
v -6 2 6
v -5 1 6
v -5 2 6
v -5 1 5
v -5 2 5
v -4 1 5
v -4 2 5
v -4 1 4
v -4 2 4
v -3 1 4
v -3 2 4
v -3 1 3
v -3 2 3
v -2 1 3
v -2 2 3
v -2 1 2
v -2 2 2
v -1 1 2
v -1 2 2
v -1 1 1
v -1 2 1
v 0 1 1
v 0 2 1
v 0 1 -0
v 0 2 -0
v 1 1 -0
v 1 2 -0
v 1 1 -1
v 1 2 -1
v 2 1 -1
v 2 2 -1
v 2 1 -2
v 2 2 -2
v 3 1 -2
v 3 2 -2
v 3 1 -3
v 3 2 -3
v 4 1 -3
v 4 2 -3
v 4 1 -4
v 4 2 -4
v 5 1 -4
v 5 2 -4
v 5 1 -5
v 5 2 -5
v 6 1 -5
v 6 2 -5
v 6 1 -6
v 6 2 -6
v 7 1 -6
v 7 2 -6
v 7 1 -7
v 7 2 -7
v 8 1 -7
v 8 2 -7
v 8 1 -8
v 8 2 -8
v 9 1 -8
v 9 2 -8
v 9 1 -9
v 9 2 -9
v 10 1 -9
v 10 2 -9
v 10 1 -10
v 10 2 -10
v 11 1 -10
v 11 2 -10
v 11 1 -11
v 11 2 -11
v 12 1 -11
v 12 2 -11
v 12 1 -12
v 12 2 -12
v 13 1 -12
v 13 2 -12
v 13 1 -13
v 13 2 -13
v 14 1 -13
v 14 2 -13
v 14 1 -14
v 14 2 -14
v 15 1 -14
v 15 2 -14
v 15 1 -15
v 15 2 -15
v 16 1 -15
v 16 2 -15
v -16 0 -16
v -16 2 -16
v 16 0 -16
v 16 2 -16
v -16 0 16
v -15 0 16
v 16 0 16
v -15 0 15
v -14 0 15
v -14 0 14
v -13 0 14
v -13 0 13
v -12 0 13
v -12 0 12
v -11 0 12
v -11 0 11
v -10 0 11
v -10 0 10
v -9 0 10
v -9 0 9
v -8 0 9
v -8 0 8
v -7 0 8
v -7 0 7
v -6 0 7
v -6 0 6
v -5 0 6
v -5 0 5
v -4 0 5
v -4 0 4
v -3 0 4
v -3 0 3
v -2 0 3
v -2 0 2
v -1 0 2
v -1 0 1
v 0 0 1
v 0 0 -0
v 1 0 -0
v 1 0 -1
v 2 0 -1
v 2 0 -2
v 3 0 -2
v 3 0 -3
v 4 0 -3
v 4 0 -4
v 5 0 -4
v 5 0 -5
v 6 0 -5
v 6 0 -6
v 7 0 -6
v 7 0 -7
v 8 0 -7
v 8 0 -8
v 9 0 -8
v 9 0 -9
v 10 0 -9
v 10 0 -10
v 11 0 -10
v 11 0 -11
v 12 0 -11
v 12 0 -12
v 13 0 -12
v 13 0 -13
v 14 0 -13
v 14 0 -14
v 15 0 -14
v 15 0 -15
v 16 0 -15
v -16 0 -16
v 16 0 -16
v -15 1 16
v 16 1 16
v -15 1 15
v -14 1 15
v -14 1 14
v -13 1 14
v -13 1 13
v -12 1 13
v -12 1 12
v -11 1 12
v -11 1 11
v -10 1 11
v -10 1 10
v -9 1 10
v -9 1 9
v -8 1 9
v -8 1 8
v -7 1 8
v -7 1 7
v -6 1 7
v -6 1 6
v -5 1 6
v -5 1 5
v -4 1 5
v -4 1 4
v -3 1 4
v -3 1 3
v -2 1 3
v -2 1 2
v -1 1 2
v -1 1 1
v 0 1 1
v 0 1 -0
v 1 1 -0
v 1 1 -1
v 2 1 -1
v 2 1 -2
v 3 1 -2
v 3 1 -3
v 4 1 -3
v 4 1 -4
v 5 1 -4
v 5 1 -5
v 6 1 -5
v 6 1 -6
v 7 1 -6
v 7 1 -7
v 8 1 -7
v 8 1 -8
v 9 1 -8
v 9 1 -9
v 10 1 -9
v 10 1 -10
v 11 1 -10
v 11 1 -11
v 12 1 -11
v 12 1 -12
v 13 1 -12
v 13 1 -13
v 14 1 -13
v 14 1 -14
v 15 1 -14
v 15 1 -15
v 16 1 -15
v -16 2 16
v -15 2 16
v -15 2 15
v -14 2 15
v -14 2 14
v -13 2 14
v -13 2 13
v -12 2 13
v -12 2 12
v -11 2 12
v -11 2 11
v -10 2 11
v -10 2 10
v -9 2 10
v -9 2 9
v -8 2 9
v -8 2 8
v -7 2 8
v -7 2 7
v -6 2 7
v -6 2 6
v -5 2 6
v -5 2 5
v -4 2 5
v -4 2 4
v -3 2 4
v -3 2 3
v -2 2 3
v -2 2 2
v -1 2 2
v -1 2 1
v 0 2 1
v 0 2 -0
v 1 2 -0
v 1 2 -1
v 2 2 -1
v 2 2 -2
v 3 2 -2
v 3 2 -3
v 4 2 -3
v 4 2 -4
v 5 2 -4
v 5 2 -5
v 6 2 -5
v 6 2 -6
v 7 2 -6
v 7 2 -7
v 8 2 -7
v 8 2 -8
v 9 2 -8
v 9 2 -9
v 10 2 -9
v 10 2 -10
v 11 2 -10
v 11 2 -11
v 12 2 -11
v 12 2 -12
v 13 2 -12
v 13 2 -13
v 14 2 -13
v 14 2 -14
v 15 2 -14
v 15 2 -15
v 16 2 -15
v -16 2 -16
v 16 2 -16

# faces
f 3/1/1 2/1/1 1/1/1
f 4/1/1 2/1/1 3/1/1
f 5/1/2 6/1/2 7/1/2
f 7/1/2 6/1/2 8/1/2
f 9/1/2 10/1/2 11/1/2
f 11/1/2 10/1/2 12/1/2
f 13/1/2 14/1/2 15/1/2
f 15/1/2 14/1/2 16/1/2
f 17/1/2 18/1/2 19/1/2
f 19/1/2 18/1/2 20/1/2
f 21/1/2 22/1/2 23/1/2
f 23/1/2 22/1/2 24/1/2
f 25/1/2 26/1/2 27/1/2
f 27/1/2 26/1/2 28/1/2
f 29/1/2 30/1/2 31/1/2
f 31/1/2 30/1/2 32/1/2
f 33/1/2 34/1/2 35/1/2
f 35/1/2 34/1/2 36/1/2
f 37/1/2 38/1/2 39/1/2
f 39/1/2 38/1/2 40/1/2
f 41/1/2 42/1/2 43/1/2
f 43/1/2 42/1/2 44/1/2
f 45/1/2 46/1/2 47/1/2
f 47/1/2 46/1/2 48/1/2
f 49/1/2 50/1/2 51/1/2
f 51/1/2 50/1/2 52/1/2
f 53/1/2 54/1/2 55/1/2
f 55/1/2 54/1/2 56/1/2
f 57/1/2 58/1/2 59/1/2
f 59/1/2 58/1/2 60/1/2
f 61/1/2 62/1/2 63/1/2
f 63/1/2 62/1/2 64/1/2
f 65/1/2 66/1/2 67/1/2
f 67/1/2 66/1/2 68/1/2
f 69/1/2 70/1/2 71/1/2
f 71/1/2 70/1/2 72/1/2
f 73/1/2 74/1/2 75/1/2
f 75/1/2 74/1/2 76/1/2
f 77/1/2 78/1/2 79/1/2
f 79/1/2 78/1/2 80/1/2
f 81/1/2 82/1/2 83/1/2
f 83/1/2 82/1/2 84/1/2
f 85/1/2 86/1/2 87/1/2
f 87/1/2 86/1/2 88/1/2
f 89/1/2 90/1/2 91/1/2
f 91/1/2 90/1/2 92/1/2
f 93/1/2 94/1/2 95/1/2
f 95/1/2 94/1/2 96/1/2
f 97/1/2 98/1/2 99/1/2
f 99/1/2 98/1/2 100/1/2
f 101/1/2 102/1/2 103/1/2
f 103/1/2 102/1/2 104/1/2
f 105/1/2 106/1/2 107/1/2
f 107/1/2 106/1/2 108/1/2
f 109/1/2 110/1/2 111/1/2
f 111/1/2 110/1/2 112/1/2
f 113/1/2 114/1/2 115/1/2
f 115/1/2 114/1/2 116/1/2
f 117/1/2 118/1/2 119/1/2
f 119/1/2 118/1/2 120/1/2
f 121/1/2 122/1/2 123/1/2
f 123/1/2 122/1/2 124/1/2
f 125/1/2 126/1/2 127/1/2
f 127/1/2 126/1/2 128/1/2
f 129/2/2 130/2/2 132/2/2
f 130/1/2 131/1/2 133/1/2
f 132/2/2 130/2/2 133/2/2
f 133/1/2 131/1/2 134/1/2
f 134/1/2 131/1/2 135/1/2
f 138/1/3 137/1/3 136/1/3
f 139/1/3 137/1/3 138/1/3
f 140/1/3 137/1/3 139/1/3
f 141/2/3 139/2/3 138/2/3
f 142/2/3 139/2/3 141/2/3
f 145/1/3 144/1/3 143/1/3
f 146/1/3 144/1/3 145/1/3
f 149/1/3 148/1/3 147/1/3
f 150/1/3 148/1/3 149/1/3
f 153/1/3 152/1/3 151/1/3
f 154/1/3 152/1/3 153/1/3
f 157/1/3 156/1/3 155/1/3
f 158/1/3 156/1/3 157/1/3
f 161/1/3 160/1/3 159/1/3
f 162/1/3 160/1/3 161/1/3
f 165/1/3 164/1/3 163/1/3
f 166/1/3 164/1/3 165/1/3
f 169/1/3 168/1/3 167/1/3
f 170/1/3 168/1/3 169/1/3
f 173/1/3 172/1/3 171/1/3
f 174/1/3 172/1/3 173/1/3
f 177/1/3 176/1/3 175/1/3
f 178/1/3 176/1/3 177/1/3
f 181/1/3 180/1/3 179/1/3
f 182/1/3 180/1/3 181/1/3
f 185/1/3 184/1/3 183/1/3
f 186/1/3 184/1/3 185/1/3
f 189/1/3 188/1/3 187/1/3
f 190/1/3 188/1/3 189/1/3
f 193/1/3 192/1/3 191/1/3
f 194/1/3 192/1/3 193/1/3
f 197/1/3 196/1/3 195/1/3
f 198/1/3 196/1/3 197/1/3
f 201/1/3 200/1/3 199/1/3
f 202/1/3 200/1/3 201/1/3
f 205/1/3 204/1/3 203/1/3
f 206/1/3 204/1/3 205/1/3
f 209/1/3 208/1/3 207/1/3
f 210/1/3 208/1/3 209/1/3
f 213/1/3 212/1/3 211/1/3
f 214/1/3 212/1/3 213/1/3
f 217/1/3 216/1/3 215/1/3
f 218/1/3 216/1/3 217/1/3
f 221/1/3 220/1/3 219/1/3
f 222/1/3 220/1/3 221/1/3
f 225/1/3 224/1/3 223/1/3
f 226/1/3 224/1/3 225/1/3
f 229/1/3 228/1/3 227/1/3
f 230/1/3 228/1/3 229/1/3
f 233/1/3 232/1/3 231/1/3
f 234/1/3 232/1/3 233/1/3
f 237/1/3 236/1/3 235/1/3
f 238/1/3 236/1/3 237/1/3
f 241/1/3 240/1/3 239/1/3
f 242/1/3 240/1/3 241/1/3
f 245/1/3 244/1/3 243/1/3
f 246/1/3 244/1/3 245/1/3
f 249/1/3 248/1/3 247/1/3
f 250/1/3 248/1/3 249/1/3
f 253/1/3 252/1/3 251/1/3
f 254/1/3 252/1/3 253/1/3
f 257/1/3 256/1/3 255/1/3
f 258/1/3 256/1/3 257/1/3
f 261/1/3 260/1/3 259/1/3
f 262/1/3 260/1/3 261/1/3
f 265/1/3 264/1/3 263/1/3
f 266/1/3 264/1/3 265/1/3
f 267/1/4 268/1/4 269/1/4
f 269/1/4 268/1/4 270/1/4
f 274/1/5 272/1/5 271/1/5
f 274/2/5 273/2/5 272/2/5
f 275/2/5 273/2/5 274/2/5
f 276/1/5 275/1/5 274/1/5
f 276/2/5 273/2/5 275/2/5
f 277/2/5 273/2/5 276/2/5
f 278/1/5 277/1/5 276/1/5
f 278/2/5 273/2/5 277/2/5
f 279/2/5 273/2/5 278/2/5
f 280/1/5 279/1/5 278/1/5
f 280/2/5 273/2/5 279/2/5
f 281/2/5 273/2/5 280/2/5
f 282/1/5 281/1/5 280/1/5
f 282/2/5 273/2/5 281/2/5
f 283/2/5 273/2/5 282/2/5
f 284/1/5 283/1/5 282/1/5
f 284/2/5 273/2/5 283/2/5
f 285/2/5 273/2/5 284/2/5
f 286/1/5 285/1/5 284/1/5
f 286/2/5 273/2/5 285/2/5
f 287/2/5 273/2/5 286/2/5
f 288/1/5 287/1/5 286/1/5
f 288/2/5 273/2/5 287/2/5
f 289/2/5 273/2/5 288/2/5
f 290/1/5 289/1/5 288/1/5
f 290/2/5 273/2/5 289/2/5
f 291/2/5 273/2/5 290/2/5
f 292/1/5 291/1/5 290/1/5
f 292/2/5 273/2/5 291/2/5
f 293/2/5 273/2/5 292/2/5
f 294/1/5 293/1/5 292/1/5
f 294/2/5 273/2/5 293/2/5
f 295/2/5 273/2/5 294/2/5
f 296/1/5 295/1/5 294/1/5
f 296/2/5 273/2/5 295/2/5
f 297/2/5 273/2/5 296/2/5
f 298/1/5 297/1/5 296/1/5
f 298/2/5 273/2/5 297/2/5
f 299/2/5 273/2/5 298/2/5
f 300/1/5 299/1/5 298/1/5
f 300/2/5 273/2/5 299/2/5
f 301/2/5 273/2/5 300/2/5
f 302/1/5 301/1/5 300/1/5
f 302/2/5 273/2/5 301/2/5
f 303/2/5 273/2/5 302/2/5
f 304/1/5 303/1/5 302/1/5
f 304/2/5 273/2/5 303/2/5
f 305/2/5 273/2/5 304/2/5
f 306/1/5 305/1/5 304/1/5
f 306/2/5 273/2/5 305/2/5
f 307/2/5 273/2/5 306/2/5
f 308/1/5 307/1/5 306/1/5
f 308/2/5 273/2/5 307/2/5
f 309/2/5 273/2/5 308/2/5
f 310/1/5 309/1/5 308/1/5
f 310/2/5 273/2/5 309/2/5
f 311/2/5 273/2/5 310/2/5
f 312/1/5 311/1/5 310/1/5
f 312/2/5 273/2/5 311/2/5
f 313/2/5 273/2/5 312/2/5
f 314/1/5 313/1/5 312/1/5
f 314/2/5 273/2/5 313/2/5
f 315/2/5 273/2/5 314/2/5
f 316/1/5 315/1/5 314/1/5
f 316/2/5 273/2/5 315/2/5
f 317/2/5 273/2/5 316/2/5
f 318/1/5 317/1/5 316/1/5
f 318/2/5 273/2/5 317/2/5
f 319/2/5 273/2/5 318/2/5
f 320/1/5 319/1/5 318/1/5
f 320/2/5 273/2/5 319/2/5
f 321/2/5 273/2/5 320/2/5
f 322/1/5 321/1/5 320/1/5
f 322/2/5 273/2/5 321/2/5
f 323/2/5 273/2/5 322/2/5
f 324/1/5 323/1/5 322/1/5
f 324/2/5 273/2/5 323/2/5
f 325/2/5 273/2/5 324/2/5
f 326/1/5 325/1/5 324/1/5
f 326/2/5 273/2/5 325/2/5
f 327/2/5 273/2/5 326/2/5
f 328/1/5 327/1/5 326/1/5
f 328/2/5 273/2/5 327/2/5
f 329/2/5 273/2/5 328/2/5
f 330/1/5 329/1/5 328/1/5
f 330/2/5 273/2/5 329/2/5
f 331/2/5 273/2/5 330/2/5
f 332/1/5 331/1/5 330/1/5
f 332/2/5 273/2/5 331/2/5
f 333/2/5 273/2/5 332/2/5
f 334/1/5 333/1/5 332/1/5
f 334/2/5 273/2/5 333/2/5
f 335/2/5 273/2/5 334/2/5
f 336/1/5 274/1/5 271/1/5
f 336/1/5 276/1/5 274/1/5
f 336/1/5 335/1/5 334/1/5
f 336/1/5 334/1/5 332/1/5
f 336/1/5 332/1/5 330/1/5
f 336/1/5 330/1/5 328/1/5
f 336/1/5 328/1/5 326/1/5
f 336/1/5 326/1/5 324/1/5
f 336/1/5 324/1/5 322/1/5
f 336/1/5 322/1/5 320/1/5
f 336/1/5 320/1/5 318/1/5
f 336/1/5 318/1/5 316/1/5
f 336/1/5 316/1/5 314/1/5
f 336/1/5 314/1/5 312/1/5
f 336/1/5 312/1/5 310/1/5
f 336/1/5 310/1/5 308/1/5
f 336/1/5 308/1/5 306/1/5
f 336/1/5 306/1/5 304/1/5
f 336/1/5 304/1/5 302/1/5
f 336/1/5 302/1/5 300/1/5
f 336/1/5 300/1/5 298/1/5
f 336/1/5 298/1/5 296/1/5
f 336/1/5 296/1/5 294/1/5
f 336/1/5 294/1/5 292/1/5
f 336/1/5 292/1/5 290/1/5
f 336/1/5 290/1/5 288/1/5
f 336/1/5 288/1/5 286/1/5
f 336/1/5 286/1/5 284/1/5
f 336/1/5 284/1/5 282/1/5
f 336/1/5 282/1/5 280/1/5
f 336/1/5 280/1/5 278/1/5
f 336/1/5 278/1/5 276/1/5
f 337/1/5 335/1/5 336/1/5
f 338/2/6 339/2/6 340/2/6
f 340/2/6 339/2/6 341/2/6
f 341/2/6 339/2/6 342/2/6
f 342/2/6 339/2/6 343/2/6
f 343/2/6 339/2/6 344/2/6
f 344/2/6 339/2/6 345/2/6
f 345/2/6 339/2/6 346/2/6
f 346/2/6 339/2/6 347/2/6
f 347/2/6 339/2/6 348/2/6
f 348/2/6 339/2/6 349/2/6
f 349/2/6 339/2/6 350/2/6
f 350/2/6 339/2/6 351/2/6
f 351/2/6 339/2/6 352/2/6
f 352/2/6 339/2/6 353/2/6
f 353/2/6 339/2/6 354/2/6
f 354/2/6 339/2/6 355/2/6
f 355/2/6 339/2/6 356/2/6
f 356/2/6 339/2/6 357/2/6
f 357/2/6 339/2/6 358/2/6
f 358/2/6 339/2/6 359/2/6
f 359/2/6 339/2/6 360/2/6
f 360/2/6 339/2/6 361/2/6
f 361/2/6 339/2/6 362/2/6
f 362/2/6 339/2/6 363/2/6
f 363/2/6 339/2/6 364/2/6
f 364/2/6 339/2/6 365/2/6
f 365/2/6 339/2/6 366/2/6
f 366/2/6 339/2/6 367/2/6
f 367/2/6 339/2/6 368/2/6
f 368/2/6 339/2/6 369/2/6
f 369/2/6 339/2/6 370/2/6
f 370/2/6 339/2/6 371/2/6
f 371/2/6 339/2/6 372/2/6
f 372/2/6 339/2/6 373/2/6
f 373/2/6 339/2/6 374/2/6
f 374/2/6 339/2/6 375/2/6
f 375/2/6 339/2/6 376/2/6
f 376/2/6 339/2/6 377/2/6
f 377/2/6 339/2/6 378/2/6
f 378/2/6 339/2/6 379/2/6
f 379/2/6 339/2/6 380/2/6
f 380/2/6 339/2/6 381/2/6
f 381/2/6 339/2/6 382/2/6
f 382/2/6 339/2/6 383/2/6
f 383/2/6 339/2/6 384/2/6
f 384/2/6 339/2/6 385/2/6
f 385/2/6 339/2/6 386/2/6
f 386/2/6 339/2/6 387/2/6
f 387/2/6 339/2/6 388/2/6
f 388/2/6 339/2/6 389/2/6
f 389/2/6 339/2/6 390/2/6
f 390/2/6 339/2/6 391/2/6
f 391/2/6 339/2/6 392/2/6
f 392/2/6 339/2/6 393/2/6
f 393/2/6 339/2/6 394/2/6
f 394/2/6 339/2/6 395/2/6
f 395/2/6 339/2/6 396/2/6
f 396/2/6 339/2/6 397/2/6
f 397/2/6 339/2/6 398/2/6
f 398/2/6 339/2/6 399/2/6
f 399/2/6 339/2/6 400/2/6
f 400/2/6 339/2/6 401/2/6
f 402/1/6 403/1/6 404/1/6
f 404/1/6 405/1/6 406/1/6
f 406/1/6 407/1/6 408/1/6
f 408/1/6 409/1/6 410/1/6
f 410/1/6 411/1/6 412/1/6
f 412/1/6 413/1/6 414/1/6
f 414/1/6 415/1/6 416/1/6
f 416/1/6 417/1/6 418/1/6
f 418/1/6 419/1/6 420/1/6
f 420/1/6 421/1/6 422/1/6
f 422/1/6 423/1/6 424/1/6
f 424/1/6 425/1/6 426/1/6
f 426/1/6 427/1/6 428/1/6
f 428/1/6 429/1/6 430/1/6
f 430/1/6 431/1/6 432/1/6
f 432/1/6 433/1/6 434/1/6
f 434/1/6 435/1/6 436/1/6
f 436/1/6 437/1/6 438/1/6
f 438/1/6 439/1/6 440/1/6
f 440/1/6 441/1/6 442/1/6
f 442/1/6 443/1/6 444/1/6
f 444/1/6 445/1/6 446/1/6
f 446/1/6 447/1/6 448/1/6
f 448/1/6 449/1/6 450/1/6
f 450/1/6 451/1/6 452/1/6
f 452/1/6 453/1/6 454/1/6
f 454/1/6 455/1/6 456/1/6
f 456/1/6 457/1/6 458/1/6
f 458/1/6 459/1/6 460/1/6
f 460/1/6 461/1/6 462/1/6
f 462/1/6 463/1/6 464/1/6
f 402/1/6 404/1/6 466/1/6
f 464/1/6 465/1/6 466/1/6
f 462/1/6 464/1/6 466/1/6
f 460/1/6 462/1/6 466/1/6
f 458/1/6 460/1/6 466/1/6
f 456/1/6 458/1/6 466/1/6
f 454/1/6 456/1/6 466/1/6
f 452/1/6 454/1/6 466/1/6
f 450/1/6 452/1/6 466/1/6
f 448/1/6 450/1/6 466/1/6
f 446/1/6 448/1/6 466/1/6
f 444/1/6 446/1/6 466/1/6
f 442/1/6 444/1/6 466/1/6
f 440/1/6 442/1/6 466/1/6
f 438/1/6 440/1/6 466/1/6
f 436/1/6 438/1/6 466/1/6
f 434/1/6 436/1/6 466/1/6
f 432/1/6 434/1/6 466/1/6
f 430/1/6 432/1/6 466/1/6
f 428/1/6 430/1/6 466/1/6
f 426/1/6 428/1/6 466/1/6
f 424/1/6 426/1/6 466/1/6
f 422/1/6 424/1/6 466/1/6
f 420/1/6 422/1/6 466/1/6
f 418/1/6 420/1/6 466/1/6
f 416/1/6 418/1/6 466/1/6
f 414/1/6 416/1/6 466/1/6
f 412/1/6 414/1/6 466/1/6
f 410/1/6 412/1/6 466/1/6
f 408/1/6 410/1/6 466/1/6
f 406/1/6 408/1/6 466/1/6
f 404/1/6 406/1/6 466/1/6
f 466/1/6 465/1/6 467/1/6
